<svg xmlns="http://www.w3.org/2000/svg" viewBox="0 0 532.53 673.46"><defs><linearGradient id="a" x1="389.52" y1="497.62" x2="184.13" y2="141.87" gradientUnits="userSpaceOnUse"><stop offset="0" stop-color="#b3b3b3"/><stop offset=".07" stop-color="#c9c9c9"/><stop offset=".16" stop-color="#e1e1e1"/><stop offset=".26" stop-color="#f2f2f2"/><stop offset=".37" stop-color="#fcfcfc"/><stop offset=".5" stop-color="#fff"/></linearGradient></defs><path d="M351.72 627.42c3.51-12.33 8.94-15.75 19.55-16-3.95-11.75 8.62-18.76 8.62-18.76s-53.84 4.34-57.17-9.44c-2.9-12-3.53-59.21-3.53-59.21a70.4 70.4 0 01-16.8 6.89c6.28 13 14.22 49.71 8.18 56.24-7.49 8.09 3.32 13.8 7.14 15.21 13.16 4.85 33.91 20.72 34.01 25.07z" fill="#ec6901"/><path d="M.09 467.08C2.6 490.45 63.91 489 82.56 484.82c11.08 13.74 126.51 144.1 276.82 27 123.33-106.41 53.91-254.71 46.56-282-13.75-51-10.64-123.93 39.9-147.65 66.61-31.17 40.57-62.6 40.57-62.6S438.75-37 379.78 42.32c-49 66-12.16 182-63.64 230.23-47.21 44.22-73.51 42.27-132.24 62.85C132 353.58 91 377.52 77.24 421.86c0 0-80.24 16.4-77.15 45.22z" fill="url(#a)"/><path d="M237 673.46c9-12.15 16.45-13.64 28.27-9.5.56-14.62 17.36-17.11 17.36-17.11s-61.24-17.71-59.16-34.31c1.8-14.41 20.85-66.82 20.85-66.82a82.46 82.46 0 01-21.42.59c1.49 17-5.08 60.81-14.47 65.49-11.64 5.8-2.1 16.61 1.52 19.77 12.49 10.87 28.76 37.04 27.05 41.89zM468 13.16c15.3-1.33 64.51 16.05 64.52 23.39 0 10.09-40 15.1-54.32 16.85 6-21.5-10.2-40.24-10.2-40.24z" fill="#ec6901"/><circle cx="439.77" cy="27.38" r="8.23"/></svg>